<?xml version="1.0" encoding="UTF-8" standalone="no"?>
<!-- Created with Inkscape (http://www.inkscape.org/) -->

<svg
   width="240mm"
   height="120mm"
   viewBox="0 0 240 120"
   version="1.1"
   id="svg8"
   inkscape:version="1.3.2 (1:1.3.2+202404261509+091e20ef0f)"
   sodipodi:docname="pic1.svg"
   xmlns:inkscape="http://www.inkscape.org/namespaces/inkscape"
   xmlns:sodipodi="http://sodipodi.sourceforge.net/DTD/sodipodi-0.dtd"
   xmlns="http://www.w3.org/2000/svg"
   xmlns:svg="http://www.w3.org/2000/svg"
   xmlns:rdf="http://www.w3.org/1999/02/22-rdf-syntax-ns#"
   xmlns:cc="http://creativecommons.org/ns#"
   xmlns:dc="http://purl.org/dc/elements/1.1/">
  <defs
     id="defs2">
    <rect
       x="97.735124"
       y="154.26619"
       width="20.726774"
       height="20.47965"
       id="rect8" />
    <inkscape:path-effect
       effect="spiro"
       id="path-effect7"
       is_visible="true"
       lpeversion="1" />
    <rect
       x="80.126905"
       y="136.83465"
       width="65.079054"
       height="22.388223"
       id="rect7" />
    <rect
       x="152.11987"
       y="86.31821"
       width="22.751677"
       height="18.029408"
       id="rect6" />
  </defs>
  <sodipodi:namedview
     id="base"
     pagecolor="#ffffff"
     bordercolor="#666666"
     borderopacity="1.0"
     inkscape:pageopacity="0.0"
     inkscape:pageshadow="2"
     inkscape:zoom="5.6250281"
     inkscape:cx="131.28823"
     inkscape:cy="150.57703"
     inkscape:document-units="mm"
     inkscape:current-layer="layer1"
     showgrid="false"
     showborder="true"
     width="200mm"
     showguides="true"
     inkscape:guide-bbox="true"
     inkscape:window-width="1918"
     inkscape:window-height="1054"
     inkscape:window-x="0"
     inkscape:window-y="0"
     inkscape:window-maximized="1"
     inkscape:showpageshadow="2"
     inkscape:pagecheckerboard="0"
     inkscape:deskcolor="#d1d1d1">
    <inkscape:grid
       type="xygrid"
       id="grid815"
       units="mm"
       spacingx="10"
       spacingy="10"
       empspacing="4"
       dotted="false"
       originx="0"
       originy="0"
       visible="false" />
  </sodipodi:namedview>
  <metadata
     id="metadata5">
    <rdf:RDF>
      <cc:Work
         rdf:about="">
        <dc:format>image/svg+xml</dc:format>
        <dc:type
           rdf:resource="http://purl.org/dc/dcmitype/StillImage" />
        <dc:title />
      </cc:Work>
    </rdf:RDF>
  </metadata>
  <g
     inkscape:label="Layer 1"
     inkscape:groupmode="layer"
     id="layer1"
     transform="translate(0,-177)">
    <path
       style="fill:none;stroke:#000000;stroke-width:0.264999;stroke-linecap:round;stroke-linejoin:round"
       id="path1"
       sodipodi:type="arc"
       sodipodi:cx="27.231131"
       sodipodi:cy="219.43767"
       sodipodi:rx="6.7467618"
       sodipodi:ry="6.1799445"
       sodipodi:start="0.32520399"
       sodipodi:end="0.32281753"
       sodipodi:open="true"
       sodipodi:arc-type="arc"
       d="m 33.624265,221.41217 a 6.7467618,6.1799445 0 0 1 -8.544924,3.8827 6.7467618,6.1799445 0 0 1 -4.243912,-7.82472 6.7467618,6.1799445 0 0 1 8.53986,-3.89203 6.7467618,6.1799445 0 0 1 4.254102,7.82007" />
    <path
       style="fill:none;stroke:#000000;stroke-width:0.264999;stroke-linecap:round;stroke-linejoin:round"
       id="path3"
       sodipodi:type="arc"
       sodipodi:cx="43.035042"
       sodipodi:cy="209.02924"
       sodipodi:rx="9.1511889"
       sodipodi:ry="9.4983902"
       sodipodi:start="0.32520399"
       sodipodi:end="0.32281753"
       sodipodi:open="true"
       sodipodi:arc-type="arc"
       d="m 51.706576,212.06399 a 9.1511889,9.4983902 0 0 1 -11.590184,5.96759 9.1511889,9.4983902 0 0 1 -5.756367,-12.02636 9.1511889,9.4983902 0 0 1 11.583315,-5.98194 9.1511889,9.4983902 0 0 1 5.770189,12.01922" />
    <path
       style="fill:none;stroke:#000000;stroke-width:0.264999;stroke-linecap:round;stroke-linejoin:round"
       id="path4"
       sodipodi:type="arc"
       sodipodi:cx="39.33054"
       sodipodi:cy="212.09651"
       sodipodi:rx="3.4797709"
       sodipodi:ry="2.4796839"
       sodipodi:start="0.32520399"
       sodipodi:end="0.32281753"
       sodipodi:open="true"
       sodipodi:arc-type="arc"
       d="m 42.62792,212.88878 a 3.4797709,2.4796839 0 0 1 -4.407207,1.55792 3.4797709,2.4796839 0 0 1 -2.188878,-3.13965 3.4797709,2.4796839 0 0 1 4.404595,-1.56167 3.4797709,2.4796839 0 0 1 2.194134,3.13779" />
    <path
       style="fill:none;stroke:#000000;stroke-width:0.264999;stroke-linecap:round;stroke-linejoin:round"
       id="path5"
       sodipodi:type="arc"
       sodipodi:cx="40.919758"
       sodipodi:cy="206.56378"
       sodipodi:rx="2.289259"
       sodipodi:ry="1.9868327"
       sodipodi:start="0.32520399"
       sodipodi:end="0.32281753"
       sodipodi:open="true"
       sodipodi:arc-type="arc"
       d="m 43.089027,207.19858 a 2.289259,1.9868327 0 0 1 -2.899398,1.24827 2.289259,1.9868327 0 0 1 -1.440011,-2.51562 2.289259,1.9868327 0 0 1 2.897679,-1.25128 2.289259,1.9868327 0 0 1 1.443469,2.51413" />
    <path
       style="fill:none;stroke:#000000;stroke-width:0.264999;stroke-linecap:round;stroke-linejoin:round"
       id="path6"
       sodipodi:type="arc"
       sodipodi:cx="46.814781"
       sodipodi:cy="213.49945"
       sodipodi:rx="1.155486"
       sodipodi:ry="2.2407796"
       sodipodi:start="0.32520399"
       sodipodi:end="0.32281753"
       sodipodi:open="true"
       sodipodi:arc-type="arc"
       d="m 47.909703,214.21538 a 1.155486,2.2407796 0 0 1 -1.463449,1.40783 1.155486,2.2407796 0 0 1 -0.726834,-2.83716 1.155486,2.2407796 0 0 1 1.462581,-1.41121 1.155486,2.2407796 0 0 1 0.72858,2.83548" />
    <text
       xml:space="preserve"
       transform="matrix(0.26458333,0,0,0.26458333,0,177)"
       id="text6"
       style="white-space:pre;shape-inside:url(#rect6);fill:none;stroke:#000000;stroke-width:1.00157;stroke-linecap:round;stroke-linejoin:round"><tspan
         x="152.11914"
         y="97.236862"
         id="tspan1">A</tspan></text>
    <text
       xml:space="preserve"
       transform="matrix(0.26458333,0,0,0.26458333,0,177)"
       id="text7"
       style="white-space:pre;shape-inside:url(#rect7);fill:none;stroke:#000000;stroke-width:1.00157;stroke-linecap:round;stroke-linejoin:round"><tspan
         x="80.126953"
         y="147.75249"
         id="tspan2">$U_p^x$</tspan></text>
    <path
       style="fill:none;stroke:#000000;stroke-width:0.264999;stroke-linecap:round;stroke-linejoin:round"
       d="m 25.0071,217.85919 c 0.06221,0.18862 0.141007,0.37176 0.235183,0.54663 0.0283,0.0525 0.05975,0.10628 0.10951,0.13923 0.02488,0.0165 0.05409,0.0271 0.08392,0.0274 0.02984,2.9e-4 0.06019,-0.0104 0.08129,-0.0315 0.01197,-0.012 0.02077,-0.027 0.02587,-0.0431 0.0051,-0.0161 0.0066,-0.0334 0.0048,-0.0502 -0.0035,-0.0337 -0.01982,-0.0652 -0.04214,-0.0907 -0.04465,-0.0509 -0.110121,-0.0773 -0.171302,-0.10633 -0.08104,-0.0385 -0.159568,-0.0854 -0.221069,-0.15075 -0.0615,-0.0653 -0.10493,-0.15094 -0.106055,-0.24065 -6.91e-4,-0.0552 0.01471,-0.11029 0.04307,-0.1576 0.02836,-0.0473 0.06951,-0.0867 0.117525,-0.11388 0.09604,-0.0543 0.217851,-0.0568 0.319039,-0.0128 0.101187,0.0439 0.18099,0.13166 0.222072,0.23404 0.04108,0.10238 0.04456,0.21818 0.01693,0.32498 -0.03585,0.13854 -0.124212,0.26281 -0.243291,0.34218"
       id="path7"
       inkscape:path-effect="#path-effect7"
       inkscape:original-d="m 25.0071,217.85919 c 0.0061,0.23203 0.103497,0.37105 0.235183,0.54663 0.0734,0.0979 0.142723,0.11905 0.274725,0.13515 1.030423,0.12564 -0.291879,-0.93437 -0.182784,-0.29038 0.133345,0.78713 0.175915,-0.60699 -0.327124,-0.3914 -1.337045,0.57301 1.49608,1.05218 0.718628,0.27473 -0.233679,-0.23368 -0.271298,0.20566 -0.243291,0.34218" />
    <text
       xml:space="preserve"
       transform="matrix(0.26458333,0,0,0.26458333,0,177)"
       id="text8"
       style="white-space:pre;shape-inside:url(#rect8);fill:none;stroke:#000000;stroke-width:1.00157;stroke-linecap:round;stroke-linejoin:round"><tspan
         x="97.734375"
         y="165.18413"
         id="tspan3">p</tspan></text>
  </g>
</svg>
