<?xml version="1.0" encoding="UTF-8" standalone="no"?>
<!-- Created with Inkscape (http://www.inkscape.org/) -->

<svg
   width="297mm"
   height="210mm"
   viewBox="0 0 297 210"
   version="1.1"
   id="svg1"
   inkscape:export-filename="pic1.pdf"
   inkscape:export-xdpi="96"
   inkscape:export-ydpi="96"
   inkscape:version="1.4.2 (ebf0e940d0, 2025-05-08)"
   sodipodi:docname="pic3.svg"
   xmlns:inkscape="http://www.inkscape.org/namespaces/inkscape"
   xmlns:sodipodi="http://sodipodi.sourceforge.net/DTD/sodipodi-0.dtd"
   xmlns="http://www.w3.org/2000/svg"
   xmlns:svg="http://www.w3.org/2000/svg">
  <sodipodi:namedview
     id="namedview1"
     pagecolor="#ffffff"
     bordercolor="#000000"
     borderopacity="0.25"
     inkscape:showpageshadow="2"
     inkscape:pageopacity="0.0"
     inkscape:pagecheckerboard="0"
     inkscape:deskcolor="#d1d1d1"
     inkscape:document-units="mm"
     inkscape:zoom="1.0948152"
     inkscape:cx="546.21092"
     inkscape:cy="418.79215"
     inkscape:window-width="1904"
     inkscape:window-height="1040"
     inkscape:window-x="0"
     inkscape:window-y="0"
     inkscape:window-maximized="1"
     inkscape:current-layer="layer1" />
  <defs
     id="defs1">
    <marker
       style="overflow:visible"
       id="ArrowWide"
       refX="0"
       refY="0"
       orient="auto-start-reverse"
       inkscape:stockid="Wide arrow"
       markerWidth="1"
       markerHeight="1"
       viewBox="0 0 1 1"
       inkscape:isstock="true"
       inkscape:collect="always"
       preserveAspectRatio="xMidYMid">
      <path
         style="fill:none;stroke:context-stroke;stroke-width:1;stroke-linecap:butt"
         d="M 3,-3 0,0 3,3"
         transform="rotate(180,0.125,0)"
         sodipodi:nodetypes="ccc"
         id="path1" />
    </marker>
    <rect
       x="637.55053"
       y="189.98641"
       width="287.7198"
       height="95.906599"
       id="rect13" />
    <rect
       x="465.83205"
       y="274.93225"
       width="111.43433"
       height="51.150186"
       id="rect12" />
    <inkscape:path-effect
       effect="spiro"
       id="path-effect9"
       is_visible="true"
       lpeversion="1" />
    <inkscape:path-effect
       effect="spiro"
       id="path-effect8"
       is_visible="true"
       lpeversion="1" />
    <inkscape:path-effect
       effect="spiro"
       id="path-effect7"
       is_visible="true"
       lpeversion="1" />
    <inkscape:path-effect
       effect="spiro"
       id="path-effect6"
       is_visible="true"
       lpeversion="1" />
    <rect
       x="449.39092"
       y="470.39903"
       width="267.62508"
       height="35.622451"
       id="rect6" />
    <rect
       x="360.79149"
       y="492.32054"
       width="270.36527"
       height="88.59943"
       id="rect4" />
    <rect
       x="604.66827"
       y="384.53979"
       width="168.0649"
       height="64.851129"
       id="rect3" />
    <rect
       x="406.4613"
       y="354.39772"
       width="227.43565"
       height="139.74962"
       id="rect2" />
    <inkscape:path-effect
       effect="spiro"
       id="path-effect1"
       is_visible="true"
       lpeversion="1" />
    <rect
       x="405.6055"
       y="138.21589"
       width="205.38623"
       height="63.295126"
       id="rect1" />
    <rect
       x="360.7915"
       y="492.32053"
       width="270.36526"
       height="88.599426"
       id="rect4-5" />
  </defs>
  <g
     inkscape:label="Layer 1"
     inkscape:groupmode="layer"
     id="layer1">
    <path
       style="fill:none;stroke:#000000;stroke-width:0.365001;stroke-dasharray:none;stroke-opacity:1"
       d="m 198.41058,86.759316 c -8.82934,-0.876987 -17.93959,1.402549 -25.31548,6.334355 -7.37589,4.931807 -12.96344,12.479799 -15.52665,20.974289 -1.25653,4.16416 -1.83231,8.59497 -3.92314,12.4091 -1.04541,1.90706 -2.48141,3.63764 -4.32888,4.7851 -1.84746,1.14745 -4.13095,1.66995 -6.24814,1.17267 -1.87847,-0.44121 -3.50639,-1.63898 -4.81198,-3.05981 -1.30558,-1.42083 -2.33113,-3.07031 -3.40478,-4.67361 C 122.53754,106.31282 102.6871,93.138535 80.95925,88.934339 84.0562,80.31655 89.240153,72.45701 95.942754,66.217417 109.26292,53.817389 128.43996,48.31086 146.46674,50.805446 c 18.02677,2.494587 34.6809,12.684785 45.90211,27.012103 2.21984,2.834311 4.24037,5.824696 6.04173,8.941767 z"
       id="path7"
       inkscape:path-effect="#path-effect7"
       inkscape:original-d="m 198.41058,86.759316 c -17.6679,8.833953 -25.32275,13.615074 -40.84213,27.308644 -3.44576,3.04037 -12.36409,17.29884 -14.50016,18.36687 -0.59365,0.29683 -7.51801,-7.10822 -8.21676,-7.73342 -15.97502,-14.29343 -33.45396,-28.485005 -53.89228,-35.767071 -1.122111,-9.416941 6.91589,-18.683115 14.983504,-22.716922 29.126326,-14.56316 70.573426,-6.866059 96.426096,11.600132 3.22812,2.305801 4.26185,5.826973 6.04173,8.941767 z" />
    <path
       style="fill:none;stroke:#000000;stroke-width:0.365001;stroke-dasharray:none;stroke-opacity:1"
       d="m 90.384356,72.259152 c 22.138394,4.576099 43.250304,14.051519 61.384024,27.550311 2.8969,2.156457 5.71866,4.413867 8.45843,6.766747"
       id="path8"
       inkscape:path-effect="#path-effect8"
       inkscape:original-d="m 90.384356,72.259152 c 20.274264,8.155689 43.057764,15.3328 61.384024,27.550311 3.00575,2.003827 5.43329,4.951657 8.45843,6.766747" />
    <path
       style="fill:none;stroke:#000000;stroke-width:0.365001;stroke-dasharray:none;stroke-opacity:1"
       d="m 117.20966,53.650607 57.03398,38.908775"
       id="path9"
       inkscape:path-effect="#path-effect9"
       inkscape:original-d="m 117.20966,53.650607 c 22.15564,7.005481 39.91626,26.07048 57.03398,38.908775" />
    <path
       style="fill:none;stroke:#000000;stroke-width:0.365001;stroke-dasharray:none;stroke-opacity:1"
       d="M 101.25948,95.701084 C 114.89589,71.696479 138.69665,56.550641 165.78521,56.550641"
       id="path10" />
    <path
       style="fill:none;stroke:#000000;stroke-width:0.365001;stroke-dasharray:none;stroke-opacity:1"
       d="M 119.38468,107.54288 C 139.01161,93.749245 156.2261,67.184095 182.21873,67.184095"
       id="path11" />
    <path
       style="fill:none;stroke:#000000;stroke-width:0.365001;stroke-dasharray:none;stroke-opacity:1"
       d="m 148.86835,63.075713 c -6.17672,-1.274722 -12.747,-3.86671 -19.09188,-3.86671 -7.0023,0 -12.29227,4.867375 -16.19185,10.391785 -9.19898,13.031893 -6.83362,18.091766 9.18344,26.100296 1.78922,0.894609 4.86649,0.07643 6.76674,0.241668 7.50228,0.652373 5.67077,-0.291857 10.87512,-4.108378 2.70345,-1.982529 5.83439,-2.714139 7.73342,-5.800067 3.69211,-5.99967 4.20389,-16.87055 0.72501,-22.958594 z"
       id="path12" />
    <text
       xml:space="preserve"
       transform="matrix(0.26458333,0,0,0.26458333,3.8667105,1.9333553)"
       id="text12"
       style="font-style:normal;font-variant:normal;font-weight:normal;font-stretch:normal;font-size:16.0000002px;font-family:'JetBrainsMono Nerd Font';-inkscape-font-specification:'JetBrainsMono Nerd Font';text-align:start;writing-mode:lr-tb;direction:ltr;white-space:pre;shape-inside:url(#rect12);fill:#000000;stroke:#000000;stroke-width:0.62362206;stroke-dasharray:none;stroke-opacity:1"><tspan
         x="465.83203"
         y="289.29528"
         id="tspan1">M_i</tspan></text>
    <text
       xml:space="preserve"
       transform="matrix(0.26458333,0,0,0.26458333,20.783569,-2.4166941)"
       id="text13"
       style="font-style:normal;font-variant:normal;font-weight:normal;font-stretch:normal;font-size:26.6667px;font-family:'JetBrainsMono Nerd Font';-inkscape-font-specification:'JetBrainsMono Nerd Font';text-align:start;writing-mode:lr-tb;direction:ltr;white-space:pre;shape-inside:url(#rect13);fill:#000000;stroke:#000000;stroke-width:0.623622;stroke-dasharray:none;stroke-opacity:1"><tspan
         x="637.55078"
         y="213.92575"
         id="tspan2">U_i</tspan></text>
    <path
       style="fill:none;stroke:#000000;stroke-width:0.565;stroke-dasharray:none;stroke-opacity:1;marker-end:url(#ArrowWide)"
       d="m 188.0188,50.267237 c -15.50846,-0.444394 -37.20217,0.08353 -43.74217,16.433519"
       id="path13" />
  </g>
</svg>
